<svg xmlns="http://www.w3.org/2000/svg"  viewBox="0 0 72 72" width="64px" height="64px"><path d="M 35.75 14 C 15.579 14 14 15.579 14 35.75 L 14 36.25 C 14 56.421 15.579 58 35.75 58 L 36.25 58 C 56.421 58 58 56.421 58 36.25 L 58 35.75 C 58 15.579 56.421 14 36.25 14 L 35.75 14 z M 48.996094 22.5 C 49.825094 22.498 50.498 23.168094 50.5 23.996094 C 50.502 24.825094 49.832906 25.498 49.003906 25.5 C 48.174906 25.502 47.502 24.832906 47.5 24.003906 C 47.498 23.174906 48.167094 22.502 48.996094 22.5 z M 35.976562 26 C 41.498562 25.987 45.987 30.454563 46 35.976562 C 46.013 41.498562 41.545437 45.987 36.023438 46 C 30.501437 46.013 26.013 41.545437 26 36.023438 C 25.987 30.501437 30.454563 26.013 35.976562 26 z M 35.990234 32 C 33.781234 32.006 31.995 33.800766 32 36.009766 C 32.006 38.218766 33.800766 40.005 36.009766 40 C 38.218766 39.995 40.005 38.199234 40 35.990234 C 39.994 33.781234 38.199234 31.995 35.990234 32 z"/></svg>