<svg width="20" height="20" viewBox="0 0 20 20" fill="none" xmlns="http://www.w3.org/2000/svg">
<path fill-rule="evenodd" clip-rule="evenodd" d="M5.05002 4.05036C6.36284 2.73754 8.14341 2 10 2C11.8566 2 13.6372 2.73754 14.95 4.05036C16.2628 5.36318 17.0004 7.14375 17.0004 9.00036C17.0004 10.857 16.2628 12.6375 14.95 13.9504L10 18.9004L5.05002 13.9504C4.39993 13.3003 3.88425 12.5286 3.53242 11.6793C3.1806 10.83 2.99951 9.91967 2.99951 9.00036C2.99951 8.08104 3.1806 7.17073 3.53242 6.32141C3.88425 5.47208 4.39993 4.70038 5.05002 4.05036ZM10 11.0004C10.5304 11.0004 11.0392 10.7896 11.4142 10.4146C11.7893 10.0395 12 9.53079 12 9.00036C12 8.46992 11.7893 7.96122 11.4142 7.58614C11.0392 7.21107 10.5304 7.00036 10 7.00036C9.46958 7.00036 8.96088 7.21107 8.5858 7.58614C8.21073 7.96122 8.00002 8.46992 8.00002 9.00036C8.00002 9.53079 8.21073 10.0395 8.5858 10.4146C8.96088 10.7896 9.46958 11.0004 10 11.0004Z" fill="white"/>
</svg>
