<svg width="20" height="20" viewBox="0 0 20 20" fill="none" xmlns="http://www.w3.org/2000/svg">
<path d="M2.00299 5.884L9.99999 9.882L17.997 5.884C17.9674 5.37444 17.7441 4.89549 17.3728 4.54523C17.0015 4.19497 16.5104 3.99991 16 4H3.99999C3.48958 3.99991 2.99844 4.19497 2.62717 4.54523C2.2559 4.89549 2.03259 5.37444 2.00299 5.884Z" fill="white"/>
<path d="M18 8.11816L10 12.1182L2 8.11816V14.0002C2 14.5306 2.21071 15.0393 2.58579 15.4144C2.96086 15.7895 3.46957 16.0002 4 16.0002H16C16.5304 16.0002 17.0391 15.7895 17.4142 15.4144C17.7893 15.0393 18 14.5306 18 14.0002V8.11816Z" fill="white"/>
</svg>
