<svg width="16" height="16" viewBox="0 0 16 16" fill="none" xmlns="http://www.w3.org/2000/svg">
<path fill-rule="evenodd" clip-rule="evenodd" d="M3 5.22677e-08C3.26522 5.22677e-08 3.51957 0.105357 3.70711 0.292893C3.89464 0.48043 4 0.734784 4 1V2H5C5.26522 2 5.51957 2.10536 5.70711 2.29289C5.89464 2.48043 6 2.73478 6 3C6 3.26522 5.89464 3.51957 5.70711 3.70711C5.51957 3.89464 5.26522 4 5 4H4V5C4 5.26522 3.89464 5.51957 3.70711 5.70711C3.51957 5.89464 3.26522 6 3 6C2.73478 6 2.48043 5.89464 2.29289 5.70711C2.10536 5.51957 2 5.26522 2 5V4H1C0.734784 4 0.48043 3.89464 0.292893 3.70711C0.105357 3.51957 0 3.26522 0 3C0 2.73478 0.105357 2.48043 0.292893 2.29289C0.48043 2.10536 0.734784 2 1 2H2V1C2 0.734784 2.10536 0.48043 2.29289 0.292893C2.48043 0.105357 2.73478 5.22677e-08 3 5.22677e-08ZM3 10C3.26522 10 3.51957 10.1054 3.70711 10.2929C3.89464 10.4804 4 10.7348 4 11V12H5C5.26522 12 5.51957 12.1054 5.70711 12.2929C5.89464 12.4804 6 12.7348 6 13C6 13.2652 5.89464 13.5196 5.70711 13.7071C5.51957 13.8946 5.26522 14 5 14H4V15C4 15.2652 3.89464 15.5196 3.70711 15.7071C3.51957 15.8946 3.26522 16 3 16C2.73478 16 2.48043 15.8946 2.29289 15.7071C2.10536 15.5196 2 15.2652 2 15V14H1C0.734784 14 0.48043 13.8946 0.292893 13.7071C0.105357 13.5196 0 13.2652 0 13C0 12.7348 0.105357 12.4804 0.292893 12.2929C0.48043 12.1054 0.734784 12 1 12H2V11C2 10.7348 2.10536 10.4804 2.29289 10.2929C2.48043 10.1054 2.73478 10 3 10ZM10 5.22677e-08C10.2207 -7.12755e-05 10.4352 0.0728629 10.6101 0.207437C10.785 0.342011 10.9105 0.530665 10.967 0.744L12.146 5.2L15.5 7.134C15.652 7.22177 15.7782 7.34801 15.866 7.50002C15.9538 7.65204 16 7.82447 16 8C16 8.17553 15.9538 8.34796 15.866 8.49998C15.7782 8.65199 15.652 8.77823 15.5 8.866L12.146 10.801L10.966 15.256C10.9094 15.4691 10.7839 15.6576 10.6091 15.792C10.4343 15.9264 10.22 15.9993 9.9995 15.9993C9.77899 15.9993 9.56465 15.9264 9.38986 15.792C9.21506 15.6576 9.0896 15.4691 9.033 15.256L7.854 10.8L4.5 8.866C4.34799 8.77823 4.22177 8.65199 4.13401 8.49998C4.04625 8.34796 4.00004 8.17553 4.00004 8C4.00004 7.82447 4.04625 7.65204 4.13401 7.50002C4.22177 7.34801 4.34799 7.22177 4.5 7.134L7.854 5.199L9.034 0.744C9.09045 0.530831 9.21578 0.342299 9.39049 0.207742C9.5652 0.0731848 9.77948 0.000149308 10 5.22677e-08Z" fill="white"/>
</svg>
