<svg width="16" height="18" viewBox="0 0 16 18" fill="none" xmlns="http://www.w3.org/2000/svg">
<path fill-rule="evenodd" clip-rule="evenodd" d="M0.166 3.99934C3.06114 3.96334 5.84481 2.8778 8 0.944336C10.155 2.87816 12.9387 3.96406 15.834 4.00034C15.944 4.65034 16 5.32034 16 6.00134C16 11.2263 12.66 15.6713 8 17.3183C3.34 15.6703 0 11.2253 0 6.00034C0 5.31834 0.0569999 4.65034 0.166 3.99934ZM11.707 7.70734C11.8892 7.51873 11.99 7.26613 11.9877 7.00393C11.9854 6.74174 11.8802 6.49093 11.6948 6.30552C11.5094 6.12011 11.2586 6.01494 10.9964 6.01266C10.7342 6.01038 10.4816 6.11118 10.293 6.29334L7 9.58634L5.707 8.29334C5.5184 8.11118 5.2658 8.01038 5.0036 8.01266C4.7414 8.01494 4.49059 8.12011 4.30518 8.30552C4.11977 8.49093 4.0146 8.74174 4.01233 9.00393C4.01005 9.26613 4.11084 9.51873 4.293 9.70734L6.293 11.7073C6.48053 11.8948 6.73484 12.0001 7 12.0001C7.26516 12.0001 7.51947 11.8948 7.707 11.7073L11.707 7.70734Z" fill="white"/>
</svg>
