<svg width="16" height="16" viewBox="0 0 16 16" fill="none" xmlns="http://www.w3.org/2000/svg">
<path d="M8.707 0.292786C8.51947 0.105315 8.26516 0 8 0C7.73483 0 7.48053 0.105315 7.293 0.292786L0.292999 7.29279C0.110841 7.48139 0.0100465 7.73399 0.0123249 7.99619C0.0146034 8.25838 0.119772 8.5092 0.30518 8.6946C0.490589 8.88001 0.741401 8.98518 1.0036 8.98746C1.26579 8.98974 1.5184 8.88894 1.707 8.70679L2 8.41379V14.9998C2 15.265 2.10536 15.5194 2.29289 15.7069C2.48043 15.8944 2.73478 15.9998 3 15.9998H5C5.26522 15.9998 5.51957 15.8944 5.70711 15.7069C5.89464 15.5194 6 15.265 6 14.9998V12.9998C6 12.7346 6.10536 12.4802 6.29289 12.2927C6.48043 12.1051 6.73478 11.9998 7 11.9998H9C9.26522 11.9998 9.51957 12.1051 9.70711 12.2927C9.89464 12.4802 10 12.7346 10 12.9998V14.9998C10 15.265 10.1054 15.5194 10.2929 15.7069C10.4804 15.8944 10.7348 15.9998 11 15.9998H13C13.2652 15.9998 13.5196 15.8944 13.7071 15.7069C13.8946 15.5194 14 15.265 14 14.9998V8.41379L14.293 8.70679C14.4816 8.88894 14.7342 8.98974 14.9964 8.98746C15.2586 8.98518 15.5094 8.88001 15.6948 8.6946C15.8802 8.5092 15.9854 8.25838 15.9877 7.99619C15.99 7.73399 15.8892 7.48139 15.707 7.29279L8.707 0.292786Z" fill="white"/>
</svg>
