<svg xmlns="http://www.w3.org/2000/svg" version="1.1" xmlns:xlink="http://www.w3.org/1999/xlink" xmlns:svgjs="http://svgjs.com/svgjs" width="1440" height="560" preserveAspectRatio="none" viewBox="0 0 1440 560"><g mask="url(&quot;#SvgjsMask1008&quot;)" fill="none"><rect width="1440" height="560" x="0" y="0" fill="#0e2a47"></rect><path d="M 0,157 C 96,136.6 288,53.2 480,55 C 672,56.8 768,166 960,166 C 1152,166 1344,77.2 1440,55L1440 560L0 560z" fill="rgba(44, 120, 170, 1)"></path><path d="M 0,201 C 57.6,218.8 172.8,282.6 288,290 C 403.2,297.4 460.8,224.6 576,238 C 691.2,251.4 748.8,360.8 864,357 C 979.2,353.2 1036.8,229.2 1152,219 C 1267.2,208.8 1382.4,288.6 1440,306L1440 560L0 560z" fill="#184a7e"></path><path d="M 0,476 C 96,458.6 288,373.6 480,389 C 672,404.4 768,546.4 960,553 C 1152,559.6 1344,448.2 1440,422L1440 560L0 560z" fill="#2264ab"></path></g><defs><mask id="SvgjsMask1008"><rect width="1440" height="560" fill="#ffffff"></rect></mask></defs></svg>